<svg xmlns="http://www.w3.org/2000/svg" xmlns:xlink="http://www.w3.org/1999/xlink" width="406" height="306" class="illustration styles_illustrationTablet__1DWOa" viewBox="0 0 400 300"><defs><linearGradient id="linear-gradient" x1="170.54" x2="154.93" y1="224.49" y2="247.5" gradientUnits="userSpaceOnUse"><stop offset="0" stop-color="#d4a397"/><stop offset="1" stop-color="#fff"/></linearGradient><linearGradient id="linear-gradient-2" x1="186.19" x2="172.15" y1="211.21" y2="223.88" xlink:href="#linear-gradient"/><linearGradient id="linear-gradient-3" x1="70.61" x2="41.38" y1="168.24" y2="192.03" xlink:href="#linear-gradient"/></defs><title>PP</title><g style="isolation:isolate"><g id="Layer_2" data-name="Layer 2"><path fill="#e77fea" d="M194.28,289.32,14.56,183.1c-5.72-3.21-10.63-8.49-5.05-11.94l180.37-104c2.71-1.68,6.82-2.78,9.57-1.18L388.11,175.52c5.72,3.32,6.75,12.6,1,15.93L218,289.15A23.9,23.9,0,0,1,194.28,289.32Z"/><path fill="url(#linear-gradient)" d="M125.75,190.51,83.67,213s90.59,58.55,97.25,61.35l78-40.6" style="mix-blend-mode:multiply"/><ellipse cx="208.79" cy="196.75" fill="#6FC971" rx="85.07" ry="46.37"/><ellipse cx="208.79" cy="196.75" opacity=".15" rx="85.07" ry="46.37"/><ellipse cx="208.4" cy="190.51" fill="#6FC971" rx="85.07" ry="46.37"/><path fill="url(#linear-gradient-2)" d="M180.5,190.51l-31.84,16.44s36,20.8,42.64,23.6l44.21-25.72" style="mix-blend-mode:multiply"/><path fill="url(#linear-gradient-3)" d="M49.59,173.52l-23,9.55s22.65,15.41,29.31,18.21l15.27-16.8" style="mix-blend-mode:multiply"/><path fill="#f3e4cf" d="M164.34,76h0c0-15,20.41-27.1,45.58-27.1S255.5,61,255.5,76a16.45,16.45,0,0,1-.29,3.05L244,197.57s-8.32,13.23-34,13.23-33.52-15.08-33.52-15.08L164.67,79.21A16.46,16.46,0,0,1,164.34,76Z"/><path fill="#f3d35a" d="M246.48,84.22,238.08,195s-9.5,8.84-29.28,8.84-27.15-9.54-27.22-10.83S171.1,88.44,171.1,88.44"/><path fill="#fff6eb" d="M254.9,84.43a27.79,27.79,0,0,1-3.71,10.63c-6.85,12.69-22,17.3-35.51,17.75a74.85,74.85,0,0,1-22.91-3c-6.49-1.85-13.15-4.13-18.57-8.26a22.41,22.41,0,0,1-6.45-7.43c-1.9-3.68-2.19-7.78-2.6-11.83-.54-5.3-.84-10.61,2-15.38,3.18-5.37,8.53-9.21,14-11.91,8.92-4.37,19.06-6.16,28.94-6.16,25.17,0,45.58,12.13,45.58,27.1a16.44,16.44,0,0,1-.29,3.05Z"/><path fill="#d3b897" d="M242.83,66.57a21.17,21.17,0,0,1,2.9,22.08c-5.56,12.73-72-1.19-72-1.19s-3.13-10.61,1-17.46"/><ellipse cx="209.92" cy="76.06" fill="#d3b897" rx="36.56" ry="21.74"/><ellipse cx="209.92" cy="84.22" fill="#f3d35a" rx="36.56" ry="21.74"/><path fill="#6FC971" d="M137.55,71.16c5.46-17.18,22.76-27,38.64-22s24.33,23.06,18.87,40.24a34.79,34.79,0,0,1-6.47,11.83c-6.13-3.92-12.67-7.2-17.48-12.82a.88.88,0,0,0-1.49.62,146.77,146.77,0,0,0,1.58,23,28.26,28.26,0,0,1-14.78-.63C140.53,106.35,132.09,88.33,137.55,71.16Z"/><path d="M137.55,71.16c5.46-17.18,22.76-27,38.64-22a28.27,28.27,0,0,1,12.64,8.25,39.82,39.82,0,0,0-18.34-3.87c-6.81.13-14.35,4.14-19.48,8.91a28.44,28.44,0,0,0-8.63,18.81c-.54,7.78,2.41,14.77,5.75,21.63a37.26,37.26,0,0,0,4.17,6.8C139.12,103.1,132.58,86.78,137.55,71.16Z" opacity=".15"/><path d="M173.36,84.22s12.75,12.45,14.25,12,5.57-12,4.5-15.39S173.36,84.22,173.36,84.22Z" opacity=".15"/><path d="M172.64,80.85s18-6.22,17.75-9.65-4.69-11.77-8.88-12S172.64,80.85,172.64,80.85Z" opacity=".15"/><path d="M169.41,79.88s4.71-19.17,1.93-20.67S157,63.87,155.72,66.57,169.41,79.88,169.41,79.88Z" opacity=".15"/><path d="M168.13,82.55s-15.84-12.84-18.62-9.63-.21,13.83,2.35,15.15S168.13,82.55,168.13,82.55Z" opacity=".15"/><path d="M166.3,87s-14.65,6.74-12.51,10.76,12.51,6.58,12.51,6.58L168.13,87" opacity=".15"/><path fill="#fff" d="M242.53,87.62c-.2-.79-2.17-14.43-4.35-15s-14,.2-15,1,2.77,14.62,4,15S242.53,87.62,242.53,87.62Z" opacity=".58"/><path fill="#fff" d="M242.53,87.62s-4.15,4.35-4.74,4.55-14,.79-16,0S218,82.29,217.9,79.72s5.26-6.13,5.26-6.13,4.68,11.45,6.21,12.28S242.53,87.62,242.53,87.62Z" opacity=".58"/><path fill="#fff" d="M216,69.05c-.81-.12-14.17-3.46-15.55-1.67s-5.13,13.06-4.78,14.27,14.58,3,15.4,2S216,69.05,216,69.05Z" opacity=".58"/><path fill="#fff" d="M216,69.05s2.45,5.49,2.41,6.11S213.87,88.45,212.4,90s-10.57-.26-13-1.12-3.68-7.19-3.68-7.19,12.37,0,13.71-1.1S216,69.05,216,69.05Z" opacity=".58"/><path fill="#fff" d="M212.63,92c.58.17,10.62,2.1,11,3.73s-.62,10.39-1.24,11.1-10.74-2.54-11-3.43S212.63,92,212.63,92Z" opacity=".58"/><path fill="#fff" d="M212.63,92a39.76,39.76,0,0,0-3.53,3.36c-.17.43-1.06,10.37-.54,11.85s7.2,3.13,9.1,3.3,4.72-3.69,4.72-3.69-8.33-3.85-8.89-5S212.63,92,212.63,92Z" opacity=".58"/><path fill="#fff" d="M237.76,111.52c-.6-.09-10.52-2.56-11.53-1.24s-3.81,9.69-3.54,10.59,10.82,2.21,11.42,1.51S237.76,111.52,237.76,111.52Z" opacity=".58"/><path fill="#fff" d="M237.76,111.52a39.76,39.76,0,0,1,1.79,4.53c0,.46-3.4,9.86-4.5,11s-7.84-.19-9.64-.83-2.73-5.33-2.73-5.33,9.18,0,10.17-.81S237.76,111.52,237.76,111.52Z" opacity=".58"/><path fill="#fff" d="M204.83,109.77c-.15-.59-1.61-10.7-3.23-11.14s-10.41.15-11.14.73,2.05,10.85,2.93,11.14S204.83,109.77,204.83,109.77Z" opacity=".58"/><path fill="#fff" d="M204.83,109.77a39.76,39.76,0,0,1-3.52,3.37c-.44.15-10.41.59-11.86,0s-2.8-7.33-2.89-9.24,3.9-4.54,3.9-4.54,3.47,8.49,4.61,9.11S204.83,109.77,204.83,109.77Z" opacity=".58"/><path fill="#fff" d="M202.49,120.75c0,.6-.55,10.81.95,11.56s10.23,1.93,11.07,1.5.15-11-.66-11.5S202.49,120.75,202.49,120.75Z" opacity=".58"/><path fill="#fff" d="M202.49,120.75a39.76,39.76,0,0,1,4.12-2.61c.46-.06,10.32,1.5,11.63,2.36s1.28,7.74,1,9.63-4.73,3.68-4.73,3.68-1.71-9-2.71-9.84S202.49,120.75,202.49,120.75Z" opacity=".58"/><path fill="#fff" d="M199.53,127.54c-.15-.59-1.61-10.7-3.23-11.14s-10.41.15-11.14.73,2.05,10.85,2.93,11.14S199.53,127.54,199.53,127.54Z" opacity=".58"/><path fill="#fff" d="M199.53,127.54a39.76,39.76,0,0,1-3.52,3.37c-.44.15-10.41.59-11.86,0s-2.8-7.33-2.89-9.24,3.9-4.54,3.9-4.54,3.47,8.49,4.61,9.11S199.53,127.54,199.53,127.54Z" opacity=".58"/><path fill="#ffefdc" d="M232.06,139.35a1.17,1.17,0,0,1,0,2.33A1.17,1.17,0,0,1,232.06,139.35Z"/><path fill="#ffefdc" d="M236.89,117.46a1.17,1.17,0,0,1,0,2.33A1.17,1.17,0,0,1,236.89,117.46Z"/><path fill="#ffefdc" d="M243,108a1.17,1.17,0,0,1,0,2.33A1.17,1.17,0,0,1,243,108Z"/><path fill="#ffefdc" d="M217.3,114.41a1.17,1.17,0,0,1,0,2.33A1.17,1.17,0,0,1,217.3,114.41Z"/><path fill="#ffefdc" d="M179.38,111.36a1.17,1.17,0,0,1,0,2.33A1.17,1.17,0,0,1,179.38,111.36Z"/><path fill="#ffefdc" d="M205.34,138.59a1.17,1.17,0,0,1,0,2.33A1.17,1.17,0,0,1,205.34,138.59Z"/><path fill="#ffefdc" d="M188.28,138.33a1.17,1.17,0,0,1,0,2.33A1.17,1.17,0,0,1,188.28,138.33Z"/><path fill="#ffefdc" d="M193.12,171.42a1.17,1.17,0,0,1,0,2.33A1.17,1.17,0,0,1,193.12,171.42Z"/><path fill="#ffefdc" d="M221.11,157.42a1.17,1.17,0,0,1,0,2.33A1.17,1.17,0,0,1,221.11,157.42Z"/><path fill="#ffefdc" d="M206.45,161.16a1.17,1.17,0,0,1,0,2.33A1.17,1.17,0,0,1,206.45,161.16Z"/><path fill="#ffefdc" d="M228.15,176.11a1.17,1.17,0,0,1,0,2.33A1.17,1.17,0,0,1,228.15,176.11Z"/><path fill="#fbb03b" d="M240.24,17.45a14.85,14.85,0,0,1,3.09-.62l.76,8.86a14,14,0,0,0-3.2,1.1L238.66,18C239.18,17.82,239.71,17.63,240.24,17.45Z"/><path fill="#fbb03b" d="M236.57,18.92l2.3,9.06c-.23.16-.44.32-.65.49a8,8,0,0,0-1.86,2.26l-4.56-8.63A19,19,0,0,1,236.57,18.92Z"/><path fill="#fbb03b" d="M251.52,17.82q-.89,4.22-2.13,8.35c-.16-.07-.32-.17-.49-.23a7.1,7.1,0,0,0-2.57-.48l-.75-8.72A20.38,20.38,0,0,1,251.52,17.82Z"/><path fill="#fbb03b" d="M255.15,19.45c3.9,2.25,6.84,5.9,9.93,9l21.46,21.62-6.94,5.48s-1.19-1.35-1.25-1.42c-6.27-7.06-12.72-14-19.63-20.48a58.9,58.9,0,0,0-7.32-6.38q1.32-4.26,2.24-8.61C254.16,18.91,254.67,19.17,255.15,19.45Z"/><path fill="#fbb03b" d="M218.07,77.73l7-34.35c.9-4.44,1.73-8.92,2.55-13.35q3.33,3.94,6.71,7.83c-.19,1.18-.36,2.33-.58,3.39q-3.6,17.25-7.13,34.51c-.4,1.94-1.95,13.46-3.91,28.59a39.77,39.77,0,0,1-8,1.43C216.38,90.89,217.7,79.53,218.07,77.73Z"/><path fill="#fbb03b" d="M230.19,23.87l5,9.54c-.16.53-.3,1.07-.42,1.62q-3.29-3.81-6.54-7.66A13.13,13.13,0,0,1,230.19,23.87Z"/><path fill="#b5391d" d="M253.64,18.67q-.93,4.36-2.24,8.61a15,15,0,0,0-2-1.11q1.25-4.13,2.13-8.35A20.81,20.81,0,0,1,253.64,18.67Z"/><path fill="#b5391d" d="M245.58,16.74l.75,8.72a10.44,10.44,0,0,0-2.23.23l-.76-8.86A17.3,17.3,0,0,1,245.58,16.74Z"/><path fill="#b5391d" d="M238.66,18l2.23,8.78a14,14,0,0,0-2,1.19l-2.3-9.06Q237.58,18.43,238.66,18Z"/><path fill="#b5391d" d="M231.8,22.09l4.56,8.63a12.78,12.78,0,0,0-1.13,2.69l-5-9.54A14.21,14.21,0,0,1,231.8,22.09Z"/><path fill="#b5391d" d="M227.66,29.64a14.3,14.3,0,0,1,.62-2.27q3.25,3.85,6.54,7.66c-.21.94-.37,1.89-.52,2.83Q230.92,34,227.58,30Z"/><path fill="#ff734d" d="M214.69,105.79a44.17,44.17,0,0,0,8-1.43c-3.83,29.54-9.34,73.29-10.91,85.7-2.24.24-4.48.42-6.72.45C206.32,181.52,211.27,136.15,214.69,105.79Z" opacity=".49"/><path fill="#b5391d" d="M284,56.35a9.42,9.42,0,0,0,2.63-2.65l.13-.19.09-.14A2.42,2.42,0,0,0,287,51a3.37,3.37,0,0,0-.14-.38c-.87-1.84-3.41-2.25-5.05-1.29a5.94,5.94,0,0,0-1.76,1.79A4.82,4.82,0,0,0,279,53.28,3.24,3.24,0,0,0,284,56.35Z"/><path fill="#6FC971" d="M43.87,153.79s-5.11,34.89,16.86,35c21.11.12,15.66-35.43,15.66-35.43S61.05,140,43.87,153.79Z"/><path d="M43.87,153.79s-5.11,34.89,16.86,35c21.11.12,15.66-35.43,15.66-35.43S61.05,140,43.87,153.79Z" opacity=".15"/><ellipse cx="60.08" cy="153.79" fill="#6FC971" rx="16.24" ry="6.7"/><ellipse cx="60.08" cy="153.79" opacity=".7" rx="16.24" ry="6.7"/><path fill="#938f05" d="M34.52,102.84s-11.32-2.72-7-12.13C27.54,90.7,35.33,92.24,34.52,102.84Z"/><path fill="#938f05" d="M41.4,112.34s-1.57-8,4.72-11.29C46.12,101,51.17,109.47,41.4,112.34Z"/><path fill="#938f05" d="M48.46,124.68S46.58,115,54.1,111.16C54.1,111.16,60.15,121.25,48.46,124.68Z"/><path fill="#938f05" d="M53.93,138.12s-1.88-9.63,5.65-13.51C59.57,124.6,65.62,134.69,53.93,138.12Z"/><path fill="#938f05" d="M40.72,112.55s-4-7.16-10.89-5.59C29.83,107,31.4,116.67,40.72,112.55Z"/><path fill="#938f05" d="M47.87,125s-5.11-8.37-13.28-6.17C34.59,118.8,36.93,130.33,47.87,125Z"/><path fill="#938f05" d="M53.3,138.24s-6-7.76-13.88-4.67C39.42,133.57,43,144.76,53.3,138.24Z"/><path fill="#42352f" d="M57.53,160.58h.15a7.83,7.83,0,0,1,1.59.12.78.78,0,0,0,0-.16,116,116,0,0,0-24.41-58.91c-.7-.89-1.94.37-1.25,1.25a113.91,113.91,0,0,1,23.89,57.66Z"/><path fill="#938f05" d="M84.32,118.21s9.71-2.33,6-10.41C90.3,107.8,83.62,109.12,84.32,118.21Z"/><path fill="#938f05" d="M78.41,126.36s1.34-6.9-4-9.69C74.36,116.67,70,123.9,78.41,126.36Z"/><path fill="#938f05" d="M72.36,136.94s1.61-8.26-4.84-11.59C67.52,125.35,62.33,134,72.36,136.94Z"/><path fill="#938f05" d="M67.67,148.47s1.61-8.26-4.84-11.59C62.82,136.88,57.64,145.53,67.67,148.47Z"/><path fill="#938f05" d="M79,126.54s3.42-6.14,9.34-4.79C88.34,121.75,87,130.07,79,126.54Z"/><path fill="#938f05" d="M72.86,137.2s4.38-7.18,11.39-5.29C84.26,131.9,82.25,141.79,72.86,137.2Z"/><path fill="#938f05" d="M68.21,148.57s5.15-6.66,11.91-4C80.11,144.57,77,154.17,68.21,148.57Z"/><path fill="#42352f" d="M84,117.18a99.5,99.5,0,0,0-19.82,43.27c.51-.08,1-.16,1.57-.21a97.71,97.71,0,0,1,19.32-42C85.68,117.49,84.61,116.42,84,117.18Z"/></g></g></svg>