<svg xmlns="http://www.w3.org/2000/svg" width="406" height="306" class="illustration styles_illustrationTablet__1DWOa" viewBox="0 0 400 300"><title>PP</title><g style="isolation:isolate"><g id="Layer_2" data-name="Layer 2"><path fill="#ff7b7b" d="M194.28,288.31,21.78,186.36c-5.49-3.08-10.2-8.15-4.85-11.46L190.05,75.12c2.6-1.61,6.54-2.66,9.18-1.13L380.31,179.09c5.49,3.19,6.48,12.1,1,15.29L217,288.15A22.94,22.94,0,0,1,194.28,288.31Z"/><ellipse cx="174.17" cy="182.51" fill="#6FC971" rx="100.04" ry="55.36"/><ellipse cx="174.17" cy="182.51" fill="#093e3e" opacity=".29" rx="100.04" ry="55.36"/><ellipse cx="174.17" cy="176.48" fill="#6FC971" rx="100.04" ry="55.36"/><ellipse cx="174.17" cy="176.01" fill="#093e3e" opacity=".29" rx="69.54" ry="35.54"/><path fill="#6FC971" d="M278.16,115l6.94,79.67s8,8.45,28.45,8.45,25.33-12.49,25.33-12.49l5.2-75.63s-2.17-13.88-35.73-13.88C282,101.14,278.16,115,278.16,115Z"/><path fill="#ffe8ca" d="M282.11,118.75l5.42,66s3.92,9.94,24,9.94,23.65-10.55,23.65-10.55l5.72-65.38"/><ellipse cx="311.48" cy="118.75" fill="#fff2de" rx="29.38" ry="14.46"/><path fill="#6FC971" d="M311.48,133.71c-18.29,0-33.16-7.42-33.16-16.54s14.88-16.54,33.16-16.54,33.16,7.42,33.16,16.54S329.77,133.71,311.48,133.71Zm0-32.08c-17.73,0-32.16,7-32.16,15.54s14.43,15.54,32.16,15.54,32.16-7,32.16-15.54S329.22,101.64,311.48,101.64Z"/><path fill="#fff" d="M319.76,133.21v67s6.65-1.37,6.94-1.91.46-67.37.46-67.37Z" opacity=".33"/><ellipse cx="174.17" cy="177.49" fill="#fad1a3" rx="59.16" ry="25.71"/><ellipse cx="174.17" cy="172.18" fill="#f9a14d" rx="59.16" ry="25.71"/><ellipse cx="176.36" cy="166.79" fill="#fad1a3" rx="59.16" ry="25.71"/><ellipse cx="176.36" cy="161.48" fill="#f9a14d" rx="59.16" ry="25.71"/><path fill="#e5802e" d="M229.14,149.13c.6.79,5.75,8.13-3.18,17.66C220.13,173,211,176,203,178.25a92.62,92.62,0,0,1-42.21,1.95c-8.81-1.74-17.54-4-26.14-6.58l-.17-.05"/><ellipse cx="168.93" cy="152.65" fill="#fad1a3" rx="59.16" ry="25.71"/><ellipse cx="168.93" cy="147.35" fill="#f9a14d" rx="59.16" ry="25.71"/><ellipse cx="174.17" cy="141.58" fill="#fad1a3" rx="59.16" ry="25.71"/><ellipse cx="174.17" cy="136.28" fill="#f9a14d" rx="59.16" ry="25.71"/><path fill="#f68e2b" d="M186.38,110.93s.51,7.55-5.2,7.65-3.92-4.61-15.34-2.88S152.1,123,144.61,127.79s-13-2.32-19.27.36-10.89,9.2-10.14,13.28-2.63,13.54,4.2,15.3,4.77-5.36,8.39-4.75-1.71,14.5,5.59,19.06,5.61-13.76,10.51-12.74,11,1.61,15.59,6.07,20.57-1.84,24.55-2.53,13.82-3.68,17,2.55,3,22.28,1.21,28.52-8.56,10.35-15.16,12.84-8.56,11.6,2,16.23,27.29-12.67,37.46-8.56,26.76-10.33,26.22-15.69-15.88-5.72-11.24-13-2-8.91-6.42-8.38-13.38,14.81-19.44,10.35-8.25-27.28-4.22-30.5,10.78,5.38,14.74-.37,9.05-13.78,7.2-21.7S218.69,113.52,186.38,110.93Z" opacity=".47" style="mix-blend-mode:multiply"/><polygon fill="#feec64" points="174.17 115.87 159.29 124.75 159.29 133.21 173.27 141.59 191.22 135.4 193.43 126.94 174.17 115.87"/><polygon fill="#ead039" points="193.43 126.94 172.11 131.42 173.27 141.59 191.22 135.4 193.43 126.94"/><g opacity=".58"><path fill="#fff" d="M219.52,122.17c-2.31-2.24-5.85,1.29-3.54,3.54a23.06,23.06,0,0,1,3.19,3.73c.74,1.11,1.88,2.53,1.77,3.93-.24,3.21,4.76,3.19,5,0C226.26,129.25,222.27,124.83,219.52,122.17Z"/><path fill="#fff" d="M223,137.8c-3.22,0-3.22,5,0,5S226.21,137.8,223,137.8Z"/><path fill="#fff" d="M190.95,215.8a2.68,2.68,0,0,1-2.64-3,1.55,1.55,0,0,0-1-1.85,1.51,1.51,0,0,0-1.85,1,5.73,5.73,0,0,0,5.53,6.83C192.88,218.86,192.88,215.86,190.95,215.8Z"/><path fill="#fff" d="M244.89,199.64a20,20,0,0,1-8.9,7.45c-1.75.74-1,3.64.8,2.89a23.55,23.55,0,0,0,10.69-8.83C248.55,199.54,246,198,244.89,199.64Z"/><path fill="#fff" d="M121.12,135.59a11.3,11.3,0,0,0-3.66,7.31c-.14,1.28,1.86,1.27,2,0a9.21,9.21,0,0,1,3.07-5.9C123.49,136.14,122.07,134.73,121.12,135.59Z"/><path fill="#fff" d="M118.68,147.13a1,1,0,0,0,0,2A1,1,0,0,0,118.68,147.13Z"/><path fill="#fff" d="M170.91,158.14a17.79,17.79,0,0,1-7-.31c-1.25-.3-1.78,1.63-.53,1.93a20.39,20.39,0,0,0,8,.31C172.71,159.87,172.17,157.94,170.91,158.14Z"/></g></g></g></svg>