<svg xmlns="http://www.w3.org/2000/svg" xmlns:xlink="http://www.w3.org/1999/xlink" id="Layer_2" width="406" height="306" class="illustration styles_illustrationTablet__1DWOa" data-name="Layer 2" viewBox="0 0 400 300"><defs><linearGradient id="linear-gradient" x1="323.87" x2="336.46" y1="213.58" y2="194.58" gradientUnits="userSpaceOnUse"><stop offset=".02" stop-color="#ff8d73" stop-opacity="0"/><stop offset="1" stop-color="#ff836a"/></linearGradient><linearGradient id="linear-gradient-2" x1="164.13" x2="191.87" y1="243.1" y2="201.23" xlink:href="#linear-gradient"/></defs><title>PP_</title><path fill="#ff9494" d="M196.24,288.6,23.74,186.65c-5.49-3.08-10.2-8.15-4.85-11.46L192,75.41c2.6-1.61,6.54-2.66,9.18-1.13L382.28,179.37c5.49,3.19,6.48,12.1,1,15.29L219,288.44A22.94,22.94,0,0,1,196.24,288.6Z"/><path fill="url(#linear-gradient)" d="M336.42,190.38c-9.51,5.65-19.2,11-28.61,16.79l16.88,9.65c5.06-3.46,23.68-13.15,28.53-16.9Z"/><path fill="url(#linear-gradient-2)" d="M273,242.28,146.92,170.73l-66.21,34.8,129.43,74C221.3,271.89,262.32,250.56,273,242.28Z"/><path fill="#383838" d="M216.13,183.32s-.48,3-4.77,5.7-12.87,4.74-12.87,8.13,2.48,5.19,5.64,5.19,13.55-5.87,17.61-6.55a35.67,35.67,0,0,0,8.58-3s.68-10.81-1.58-15.1S216.13,183.32,216.13,183.32Z"/><path fill="#383838" d="M239.14,201s-9,14.45-10.16,16.93c-1,2.2-3,6.57-1.81,8.58,2.4,4,11.67,1,14-1.81,3.16-3.84,4.52-11.74,5.64-12.64a39.33,39.33,0,0,0,3.16-3.16l1.67-11.7"/><path fill="#be713d" d="M210.15,128.64l6,54.68s7.58,4.39,16-1.6V147.4l5.19,54.68s4.79,7.18,14,2.39l3.59-68.65-44.7-16"/><rect width="10.52" height="79.19" x="136.81" y="101.31" fill="#cc4f00" rx="4.17" ry="4.17"/><rect width="10.52" height="79.06" x="217.97" y="193.14" fill="#cc4f00" rx="5.26" ry="5.26"/><rect width="10.52" height="88.88" x="262.47" y="158.66" fill="#cc4f00" rx="5.26" ry="5.26"/><rect width="10.52" height="79.19" x="96.45" y="120.29" fill="#cc4f00" rx="4.17" ry="4.17"/><polyline fill="#6FC971" points="93.29 117.73 93.29 128.41 219.61 199.58 278.34 165.97 278.34 155.69"/><polygon fill="#f7e26b" points="93.29 117.73 152.6 81.75 278.34 155.69 219.61 190.09 93.29 117.73"/><path fill="#6FC971" d="M113.3,101.5l1.19,15.15a7.38,7.38,0,0,0,3.45,5.72,32.73,32.73,0,0,0,17.95,4.73c7.88-.19,12.61-2.63,15.15-4.59a7.37,7.37,0,0,0,2.78-4.88L156,101.5"/><path fill="#6FC971" d="M117.18,106.23c-1.75.33-5.31.61-6.42-1.23a4.12,4.12,0,0,1,0-3c.49-1.41,1.68-1.4,3-1.21,1.59.23,2.27-2.2.67-2.43-1.8-.26-3.73-.39-5.07,1.08a6.53,6.53,0,0,0-1.24,5.16c.67,4.44,6.36,4.69,9.8,4C119.45,108.36,118.77,105.93,117.18,106.23Z"/><path fill="#6FC971" d="M160.79,98.72c-.77-4.35-5.48-4.89-9.07-4.27-1.6.27-.92,2.7.67,2.43,2-.34,4.93-.47,5.81,1.83.33.85.44,1.82-.34,2.26a5.5,5.5,0,0,1-3.28.46c-1.59-.22-2.27,2.21-.67,2.43a8.51,8.51,0,0,0,5.65-.93C161.06,102,161.07,100.28,160.79,98.72Z"/><ellipse cx="134.64" cy="101.5" fill="#f5e3d7" rx="21.34" ry="12.02"/><ellipse cx="134.64" cy="101.5" fill="#ffb70c" rx="17.12" ry="8.2"/><circle cx="241.52" cy="145.65" r="15.08" fill="#cfe872"/><path fill="#ebff99" d="M226.66,144.83c4.89.16,9.44,2.17,10.69,7.28.65,2.68.61,5.87,1.23,8.32a15.14,15.14,0,0,0,2.92.29c.26,0,.51,0,.76,0a11.78,11.78,0,0,1-1.94-3.46c-1.31-3.53-1.45-7.61-3.46-10.86-2.55-4.11-6.42-4.68-10.16-3.57a15.56,15.56,0,0,0-.24,2Z"/><path fill="#ebff99" d="M234.14,155c-.35-4.56-3-6.46-7.47-6.6A15.09,15.09,0,0,0,234.46,159C234.3,157.65,234.24,156.31,234.14,155Z"/><path fill="#ebff99" d="M246.62,138.88c2.88,1.69,5.52,3.28,7.64,5.95a15.87,15.87,0,0,1,2.09,3.43,15,15,0,0,0-16.69-17.56C236.58,133.08,244.57,137.67,246.62,138.88Z"/><path fill="#ebff99" d="M253,149.2a14.15,14.15,0,0,0-3.62-4.35,22.38,22.38,0,0,1,2.44,11.77,15.13,15.13,0,0,0,1.77-1.94A8.27,8.27,0,0,0,253,149.2Z"/><path fill="#ebff99" d="M247.85,158.9c1.75-6.67-1.34-14.18-6.42-18.66a23.39,23.39,0,0,0-10.83-5,15.08,15.08,0,0,0-2.55,3.57,11.25,11.25,0,0,1,8.51,2.07c2.86,2.11,4.33,5.28,5.28,8.59.87,3,1.3,9.4,5,10.25.32-.12.61-.28.91-.43A2,2,0,0,1,247.85,158.9Z"/><circle cx="233.83" cy="160.73" r="9.6" fill="#ff1710"/><path fill="#b71d1d" d="M228.84,152.54a9.59,9.59,0,0,0,8.91,16.95C231.6,165.59,227.05,159.06,228.84,152.54Z"/><path fill="#ff780b" d="M229.21,171.9s1.11,3.85-1,5S202.56,163,204.11,161,225.6,168.82,229.21,171.9Z"/><path fill="#ff780b" d="M215.14,171.64s1.11,3.85-1,5S188.5,162.73,190,160.73,211.53,168.55,215.14,171.64Z"/><path fill="#ff780b" d="M226.18,163.51s1.11,3.85-1,5-25.63-13.91-24.09-15.92S222.57,160.43,226.18,163.51Z"/><path fill="#f7f7f7" d="M189.64,147.08l9.94-5.82a14.26,14.26,0,0,0,0-24.59l-9.23-5.43a14.26,14.26,0,0,0-14-.28l-10.81,5.79a14.26,14.26,0,0,0,0,25.12l10.11,5.46A14.26,14.26,0,0,0,189.64,147.08Z"/><path fill="#ffc197" d="M194.36,89.88c-.49.39-1,.79-1.44,1.2.36-.52.74-1,1.09-1.57.45-.69-.66-1.33-1.1-.64l-.27.4-.08,0a.68.68,0,0,0-.83-.54c.12-.2.25-.4.36-.6a.65.65,0,0,0-.58-1c.29-.44.59-.88.86-1.33.39-.64-.48-1.25-1-.77s-1.15,1.1-1.7,1.66l.06-.11a.64.64,0,0,0-.56-.94H189a.47.47,0,0,0-.18.08l-.06,0a.55.55,0,0,0-.09.08l0,0a.66.66,0,0,0-1.14-.09l-4.1,6.51c-1.31,2.08-2.64,5.17-4.45,6.86-1.23,1.15-6.34,2.07-5.6,4.84a.63.63,0,0,0,.45.45l.36.07a2.89,2.89,0,0,0-.73,2.58.68.68,0,0,0,.83.5,7.15,7.15,0,0,0-.17,2.16,1.22,1.22,0,0,0,.87,1.19,1,1,0,0,0,.72-.12c.11,1.71.81,3.16,2.91,3.1a.63.63,0,0,0,.6-.74.65.65,0,0,0,.21-.4c.11-.93-.15-1.9,0-2.81.36-2,2.55-2,4.1-1.22.38.19,1,0,1-.55l-.21-1.74a.62.62,0,0,0,.19-.28,32.23,32.23,0,0,1,10.82-15.4C195.91,90.28,195,89.38,194.36,89.88Z"/><path fill="#f7f7f7" d="M211.37,74.87S196.65,91.28,195.3,92.63c0,0-9.3-5-10.66-4.21,0,0,23.35-34.47,29.94-36.62S217.12,73.17,211.37,74.87Z"/><path fill="#f7f7f7" d="M213.11,80.29s-1.43-14.16-1.43-15,1.87-13.5,4.39-13.5,10.15-4.54,21.46,1.81S250.79,65,251.39,68.8s2.81,27.32,2.81,33.82-18.54,7.83-18.54,7.83"/><path fill="#6FC971" d="M218.58,51.8s-2,7.86-2,13.41a57.49,57.49,0,0,0,1,10.43l10.77,3.79s-1.08-24.79,11.38-27.63l3,2.57s-7.72.41-9.75,9.21a49.1,49.1,0,0,0-.76,16.8l12.54,6.1L254.2,95v42.12l-7.45,1.35-28.85-16.8s.54-20.32,0-22.21-5.06-18.91-4.79-19.19a45.55,45.55,0,0,0,1.4-4.67s-1.41-19.12,1.56-23.82Z"/><path fill="#ffc197" d="M223.24,111.15c-.93.61-1.89,1.2-2.84,1.79.23-.24.49-.45.7-.71a.63.63,0,0,0,.14-.31,13.55,13.55,0,0,0,1.16-1.55.56.56,0,0,0,.09-.39l.46-.38a.58.58,0,0,0-.22-1,.55.55,0,0,0-.85-.26c-.51.35-1,.72-1.51,1.08a5.13,5.13,0,0,0-.91.32c.61-.65,1.23-1.29,1.83-2a.6.6,0,0,0-.08-.92h0c.61-.55-.29-1.45-.9-.9l-.7.65a.77.77,0,0,0-.09-.09L220,106c.49-.63-.31-1.51-.9-.9l-.3.32a.63.63,0,0,0-1.07-.4q-3.63,3.8-7.35,7.52a32,32,0,0,1-4,3.73c-1.64,1.14-3.14,1.17-5,1.47-4.63.72-5.54,4.84-4.15,8.9a.66.66,0,0,0,.79.45l.77-.16a.61.61,0,0,0,.21-.09c.39,1.34,1.24,2.13,3.05,1.11a.6.6,0,0,0,.1-.08c.73,1,1.8,1,2.89.45a.6.6,0,0,0,.17-.13,1.1,1.1,0,0,0,1,.43c.72-.07,1.08-.79,1.17-1.43a6.22,6.22,0,0,0-.29-2.08,15.53,15.53,0,0,0,3.23-1.8c1.41-1.11,2-2.59,3.19-3.88,2.73-3,7.11-5,10.49-7.19C224.57,111.8,223.93,110.69,223.24,111.15Z"/><path fill="#f7f7f7" d="M234.38,66.24s-3.38,16.92-5.08,21-14.72,18.61-14.72,18.61,6.69,9.81,7.74,9a149,149,0,0,0,19.32-23.35c8.8-13,11.17-21,9-25.21S237,59.31,234.38,66.24Z"/><path fill="#efaf84" d="M223.05,55.28s1.53,4.5,1.89,5c0,0,5.23.36,7.29-7.83l-.45-6.39"/><path fill="#6d3421" d="M234.84,35.64s1.79,2.43,1,4.87-1.67,2.82-1.67,2.82,1,4.87-3.33,5.89-6.53-7.69-4.74-9S234.84,35.64,234.84,35.64Z"/><path fill="#ffc197" d="M215.89,42c-1-.39,1.41,14.73,4.1,15.63s9.22-4,10-5.12a8.33,8.33,0,0,0,.9-3.33s2.69-3.71.51-4.23a2.09,2.09,0,0,0-2.56,1.79l-.9,1.15L227,42S219.47,43.45,215.89,42Z"/><path fill="#757881" d="M215.13,42v.84a1.08,1.08,0,0,0,1,1.08c3,.31,12.62.66,20-6.15v-3l-14,3.67"/><path fill="#6FC971" d="M211.4,34.23s-2.18,6.53,4.48,7.81a9,9,0,0,0,9.62-3.91s2.55,2.32,7.93.1,3.33-8.36,1.41-9.52c0,0,.77-5.25-5.64-5.64S220,25.65,220,25.65,206.92,26.42,211.4,34.23Z"/><path fill="#8fdb5e" d="M323,138.44a10.61,10.61,0,0,1,5.17,1,8.4,8.4,0,0,1,3.64,4.15c.79,1.67,1.15,4.05,2.8,5.13a4.86,4.86,0,0,1,1.64,1.42,4.26,4.26,0,0,1,.51,4c-.73,1.47-3.79,2.37-5.19,2.1"/><path fill="#1e8c0e" d="M321.6,138.63a10,10,0,0,0-8.8,7.55,13.17,13.17,0,0,0-.07,6.22c.4,1.65,1.37,4.51,3.39,4.63,2.72.17,3.6-2.38,4.46-4.47s1.76-4.39,3.94-5.22a5.86,5.86,0,0,1,6.28,1.42Z"/><path fill="#8fdb5e" d="M334,149.68c-1.64-2.13-3-4.45-4.6-6.62a19.69,19.69,0,0,0-3.19-3.86c-3.79-1.84-8.55-.15-11.34,3.07.39.12.92.14,1.21.25a10.78,10.78,0,0,1,4.33,3.07c1.67,1.85,3,4.12,4.46,6.09,2.41,3.2,5.6,5.83,9.72,3.92C337.27,154.37,335.21,151.19,334,149.68Z"/><path fill="#1e8c0e" d="M347.4,122.31s8.53-.67,8.37,12.81-12.9,4.62-10.1-3.51"/><path fill="#8fdb5e" d="M346.17,135.58c-.09-4.1,4.52-7.1,8.41-7.63a7.88,7.88,0,0,0-7.71-6c-5.84.15-10.21,6.08-11.2,13.07S340,146.42,340,146.42l2.82,2.4C348,146.79,346,139.32,346.17,135.58Z"/><path fill="#1e8c0e" d="M369.39,145.23a17.81,17.81,0,0,0-2-7.33,8.07,8.07,0,0,0-5.55-4.3l-4.8,9.24s7.15-12.51,4.23-2.88,6.72,20.44,8,6.07C369.36,145.77,369.38,145.5,369.39,145.23Z"/><path fill="#6FC971" d="M335.47,169.3s-6.42,4.17-4.63,13.94a53.61,53.61,0,0,0,2.85,9.9c1.24,3.17,2.16,7.28,5.36,9.07,3,1.67,7.6,2,10.61.14,2.75-1.68,3.73-5.5,4.74-8.34a51.75,51.75,0,0,0,2.46-10.78C359.88,159.63,335.47,169.3,335.47,169.3Z"/><ellipse cx="344.11" cy="170.73" fill="#6FC971" rx="9.36" ry="3.39"/><path fill="#1e8c0e" d="M344.87,152.69c-1.31-3.16-3.75-5.81-4.52-9.19a12,12,0,0,1,4.79-12.27c.71-.52,0-1.72-.7-1.2-6,4.35-7.14,11.77-3.65,18.09,1.08,2,2.49,3.84,3.15,6,.86,2.82-.1,4.85-1.42,7a8,8,0,0,0-2.08-5.67c-1.55-1.44-3.85-1.68-5.78-2.33-3.73-1.26-7-3.39-7.64-7.54-.13-.88-1.47-.5-1.33.37.52,3.4,2.75,5.83,5.76,7.37A40.08,40.08,0,0,0,337,155.2a6.46,6.46,0,0,1,3.66,3.58c.88,2,.28,3.43-.21,5.41-.65,2.56-1.67,4.77.09,7.19.52.71,1.72,0,1.2-.7-2.81-3.87,1.68-7.55,3.19-10.87A8.56,8.56,0,0,0,344.87,152.69Z"/><path fill="#1e8c0e" d="M362.13,144.21c-5.91-1-9.94,3.54-9.59,9.26a21.72,21.72,0,0,0,.79,4.24c.27,1,1,2.69.78,3.68a5.59,5.59,0,0,1-3.38,4c-2.57,1.21-4.22,2.67-5,5.48a.69.69,0,0,0,1.33.37c1.37-5,8.37-4.29,8.42-9.8,0-2.69-1.41-5.22-1.57-7.92-.29-4.71,2.79-8.82,7.84-7.93C362.63,145.7,363,144.37,362.13,144.21Z"/><path fill="#8fdb5e" d="M367.42,137.9c-2.29-4.23-6.46-5.22-10.54-4a13.45,13.45,0,0,0-1.64.8c-10.27,7.61-3,24.79-1.4,24.66,5.23-.43,4.69-3.51,6.44-12.12a8.13,8.13,0,0,1,8.18-6.89A15.22,15.22,0,0,0,367.42,137.9Z"/><path fill="#1e8c0e" d="M365.17,135.1a8.56,8.56,0,0,0-8.75,4.2c-3.75,6.28-2.89,13.6-2.39,20.52.06.88,1.45.89,1.38,0-.36-5-1.07-10,.29-14.88.67-2.41,1.47-5.1,3.4-6.82a7.1,7.1,0,0,1,7.73-1.11l-.52-.71C365.92,135.91,365.54,135.51,365.17,135.1Z"/><path fill="#ffb70c" d="M128.54,67.64c-1.61-.87-3.88-1.36-4.88-3-1.44-2.44,1.79-4,3.58-4.71,1.37-.54.77-2.79-.62-2.24-2,.78-4,1.71-5.07,3.68a4.6,4.6,0,0,0,.79,5.33c1.62,1.79,4,2.13,5.9,3.5.94.69,1.88,1.85,1.3,3.05s-2,1.57-3.17,1.86c-3.85.95-8.86,2.5-8.84,7.4a5.4,5.4,0,0,0,2.89,4.6c2.15,1.21,4.66,1.09,7,.89,1.48-.13,1.49-2.45,0-2.32-2.13.18-4.63.47-6.42-.95s-1.36-3.49,0-4.92c2.7-2.81,7.42-1.61,10-4.61C133.37,72.38,131.23,69.09,128.54,67.64Z"/><path fill="#ffb70c" d="M144.59,71.07c-1.08-.58-2.6-.91-3.27-2-1-1.63,1.2-2.68,2.39-3.16.92-.36.52-1.87-.41-1.5a6,6,0,0,0-3.4,2.47,3.08,3.08,0,0,0,.53,3.57c1.08,1.2,2.69,1.43,4,2.34.63.46,1.26,1.24.87,2A2.94,2.94,0,0,1,143.13,76c-2.58.64-5.93,1.67-5.92,5a3.62,3.62,0,0,0,1.94,3.08,8,8,0,0,0,4.71.59c1-.08,1-1.64,0-1.55-1.43.12-3.1.31-4.3-.64a2.15,2.15,0,0,1,0-3.29c1.81-1.88,5-1.08,6.68-3.09C147.82,74.25,146.39,72,144.59,71.07Z"/><path fill="#ffb70c" d="M184.34,116.07a1,1,0,0,0,0,2A1,1,0,0,0,184.34,116.07Z"/><path fill="#ffb70c" d="M171.59,121.61a1,1,0,0,0,0,2A1,1,0,0,0,171.59,121.61Z"/><path fill="#ffb70c" d="M192.1,134.92a1,1,0,0,0,0,2A1,1,0,0,0,192.1,134.92Z"/><path fill="#ffb70c" d="M184.62,125.49a1,1,0,0,0,0,2A1,1,0,0,0,184.62,125.49Z"/><path fill="#ffb70c" d="M173.8,135.47a1,1,0,0,0,0,2A1,1,0,0,0,173.8,135.47Z"/><path fill="#ffb70c" d="M166.87,130.76a1,1,0,0,0,0,2A1,1,0,0,0,166.87,130.76Z"/><path fill="#ffb70c" d="M184.89,141.57a1,1,0,0,0,0,2A1,1,0,0,0,184.89,141.57Z"/><path fill="#ffb70c" d="M196.81,130.48a1,1,0,0,0,0,2A1,1,0,0,0,196.81,130.48Z"/><path fill="#ffb70c" d="M184.34,132.15a1,1,0,0,0,0,2A1,1,0,0,0,184.34,132.15Z"/><path fill="#ffb70c" d="M193.76,119.67a1,1,0,0,0,0,2A1,1,0,0,0,193.76,119.67Z"/></svg>