<svg xmlns="http://www.w3.org/2000/svg" xmlns:xlink="http://www.w3.org/1999/xlink" viewBox="0 0 400 300" width="406" height="306" class="illustration styles_illustrationTablet__1DWOa"><defs><linearGradient id="linear-gradient" x1="170.77" y1="169.85" x2="120.63" y2="218.76" gradientUnits="userSpaceOnUse"><stop offset="0" stop-color="#d4a397"></stop><stop offset="1" stop-color="#fff"></stop></linearGradient></defs><title>PP</title><g style="isolation: isolate;"><g id="Layer_2" data-name="Layer 2"><path d="M193.54,283.88l-181.09-107c-5.77-3.24-10.71-8.55-5.09-12L189.1,60.07c2.73-1.69,6.87-2.8,9.64-1.19L388.83,169.21c5.77,3.35,6.8,12.7,1,16L217.41,283.71A24.08,24.08,0,0,1,193.54,283.88Z" fill="#ff7b7b"></path><ellipse cx="199.07" cy="172.53" rx="116.69" ry="64.58" fill="#6FC971"></ellipse><ellipse cx="199.07" cy="172.53" rx="116.69" ry="64.58" fill="#093e3e" opacity="0.29"></ellipse><ellipse cx="199.07" cy="165.5" rx="116.69" ry="64.58" fill="#6FC971"></ellipse><ellipse cx="201.94" cy="165.5" rx="69.75" ry="37.39" fill="#093e3e" opacity="0.29"></ellipse><path d="M93.62,215.57c4.52,1.94,17.6,12.4,22,14.51,6.34,2.78,24.47,19.43,30.83,22.18,28.85-17.38,64.21-52.33,93.77-68.5C218,173,175.2,153.41,165,144.52c-34.8,14.15-68.89,32.89-102.66,49.39C72.89,201.74,81.67,209.9,93.62,215.57Z" fill="url(#linear-gradient)" style="mix-blend-mode: multiply;"></path><path d="M253.53,158.3,244,116.21H154.11l-7.27,41c-.08.35-.14.7-.19,1.06v0h0a15.26,15.26,0,0,0-.17,2.18c0,15.63,16.55,33.43,53.53,33.43,36.24,0,53.53-17.79,53.53-33.43a15.26,15.26,0,0,0-.17-2.18Z" fill="#ffebcc"></path><path d="M253.53,158.3,244,116.21l-19.83-2.57c2.55,24.79,5.82,55.58.79,76.84,19.23-5.92,28.53-18.53,28.53-30a15.26,15.26,0,0,0-.17-2.18Z" fill="#ffdaa9"></path><ellipse cx="199.07" cy="116.21" rx="44.96" ry="28.31" fill="#933d0c"></ellipse><ellipse cx="199.07" cy="109.23" rx="44.96" ry="28.31" fill="#ad541a"></ellipse><path d="M209.06,86.24a1,1,0,0,0,0,2A1,1,0,0,0,209.06,86.24Z" fill="#fff"></path><path d="M211.47,95s-4.61-5.28-5.14-16.37l3,2.33-2.13-7.47,3.43,2.8-1.18-7.64,4,2.36.56-9,2.38,3.79s2.36-8.62,3.5-10.84c0,0,3.32,5.63,3.66,8.56l2.87-2.68-.8,5.9,2.91-2.81-1.9,9.38,3.31-2.39-2.18,7.23,3.79-.59L228.1,84l4.72-.51s-7.94,10.64-14.35,13.65S211.47,95,211.47,95Z" fill="#67ba31"></path><path d="M213.38,93.52s-1.06-6.93,4.43-16.58l1.25,3.56,2.2-7.45,1.39,4.2,3.09-7.08,2.14,4.15L233.19,67l0,4.47s6.61-6,8.76-7.28c0,0-.22,6.53-1.49,9.19l3.86-.73-3.84,4.55,4-.81-6.62,6.9,4.07-.25L236.17,88l3.51,1.53-6.37,3.64,4.26,2.1s-12.4,4.74-19.43,3.84S213.38,93.52,213.38,93.52Z" fill="#4b9e15"></path><path d="M217.91,79.33l-3.09,2.59a.88.88,0,0,0,0,1.41c.09.76,1,1.37,1.64.65l2.8-3.2A1,1,0,0,0,217.91,79.33Z" fill="#993737"></path><path d="M218.28,89.62C217.12,80.86,208.06,72.14,200,79c-4.51,3.84-12.43,13.94-9.11,20.39,3,5.84,14,4.06,18.75,2.14,3.55-1.45,6.79-3.9,8.23-7.57A8.74,8.74,0,0,0,218.28,89.62Z" fill="#fc4d4c"></path><path d="M217.85,94a8.74,8.74,0,0,0,.43-4.35,17.08,17.08,0,0,0-2.11-6.14,27.67,27.67,0,0,1-13.91,18.05,26.58,26.58,0,0,1-4,1.79,27.43,27.43,0,0,0,11.36-1.78C213.18,100.1,216.42,97.64,217.85,94Z" fill="#d82e2e"></path><path d="M207.95,79.08a6.47,6.47,0,0,0-6.72,3.06,1,1,0,0,0,1.72,1A4.42,4.42,0,0,1,207.42,81C208.67,81.22,209.22,79.3,207.95,79.08Z" fill="#fff"></path><path d="M197.61,93.07a1,1,0,0,0-1,1.72A1,1,0,0,0,197.61,93.07Z" fill="#993737"></path><path d="M197.15,88.1a1,1,0,0,0-1,1.72A1,1,0,0,0,197.15,88.1Z" fill="#993737"></path><path d="M204.77,88.57a1,1,0,0,0-1,1.72A1,1,0,0,0,204.77,88.57Z" fill="#993737"></path><path d="M202.47,95.32a1,1,0,0,0-1,1.72A1,1,0,0,0,202.47,95.32Z" fill="#993737"></path><path d="M206,84a1,1,0,0,0-1,1.72A1,1,0,0,0,206,84Z" fill="#993737"></path><path d="M211.56,85.78a1,1,0,0,0-1,1.72A1,1,0,0,0,211.56,85.78Z" fill="#993737"></path><path d="M197.82,99.18a1,1,0,0,0-1,1.72A1,1,0,0,0,197.82,99.18Z" fill="#993737"></path><path d="M208.84,91.42a1,1,0,0,0-1,1.72A1,1,0,0,0,208.84,91.42Z" fill="#993737"></path><path d="M192.42,94.25a1,1,0,0,0-1,1.72A1,1,0,0,0,192.42,94.25Z" fill="#993737"></path><path d="M233.52,88l-1.85,3.58a.88.88,0,0,0,.59,1.28,1,1,0,0,0,1.76,0l1.34-4A1,1,0,0,0,233.52,88Z" fill="#993737"></path><path d="M237.84,97.37c-4.46-7.63-16.19-12.17-21-2.71-2.68,5.29-6.07,17.66-.52,22.33,5,4.22,14.51-1.68,18.12-5.28,2.72-2.71,4.76-6.23,4.66-10.16A8.74,8.74,0,0,0,237.84,97.37Z" fill="#fc4d4c"></path><path d="M239.13,101.55a8.74,8.74,0,0,0-1.29-4.18,17.08,17.08,0,0,0-4.32-4.84,27.67,27.67,0,0,1-5.84,22,26.58,26.58,0,0,1-3,3.19,27.43,27.43,0,0,0,9.79-6C237.19,109,239.23,105.48,239.13,101.55Z" fill="#d82e2e"></path><path d="M224.24,91.65a6.47,6.47,0,0,0-5,5.43,1,1,0,0,0,2,.28,4.42,4.42,0,0,1,3.29-3.72C225.73,93.34,225.49,91.35,224.24,91.65Z" fill="#fff"></path><path d="M220.11,108.54a1,1,0,0,0-.28,2A1,1,0,0,0,220.11,108.54Z" fill="#993737"></path><path d="M217.76,104.13a1,1,0,0,0-.28,2A1,1,0,0,0,217.76,104.13Z" fill="#993737"></path><path d="M225,101.62a1,1,0,0,0-.28,2A1,1,0,0,0,225,101.62Z" fill="#993737"></path><path d="M225.46,108.74a1,1,0,0,0-.28,2A1,1,0,0,0,225.46,108.74Z" fill="#993737"></path><path d="M224.34,96.9a1,1,0,0,0-.28,2A1,1,0,0,0,224.34,96.9Z" fill="#993737"></path><path d="M230.16,96.42a1,1,0,0,0-.28,2A1,1,0,0,0,230.16,96.42Z" fill="#993737"></path><path d="M222.67,114.1a1,1,0,0,0-.28,2A1,1,0,0,0,222.67,114.1Z" fill="#993737"></path><path d="M229.84,102.68a1,1,0,0,0-.28,2A1,1,0,0,0,229.84,102.68Z" fill="#993737"></path><path d="M215.78,111.64a1,1,0,0,0-.28,2A1,1,0,0,0,215.78,111.64Z" fill="#993737"></path><path d="M147.18,155.31l-.7,5.18s-2.21,33.41,53.53,33.43c53.7,0,53.69-34.89,53.69-34.89l-1.2-5.33s-3.23,37.83-52.4,35.91C148.68,187.59,147.18,155.31,147.18,155.31Z" fill="#f7ae4f"></path><path d="M317.79,163.78,238,218c-.2.13-.33,1-.4,1.22-.48,1.49-.94,3-1.39,4.49-2.42,8-8.79,13.36-16,17-4.51,2.28-12.24,5.56-16.7,1.6-4.23-3.76-2.18-11.41.44-15.53,3.15-4.95,8.37-11.1,22.22-13.44,0,0,4.54.38,7.54-1.56s34.86-24,34.86-24l43.83-31s5.61-3.52,8.48-1.25S317.79,163.78,317.79,163.78Z" fill="#ad541a"></path></g></g></svg>