<svg xmlns="http://www.w3.org/2000/svg" id="Layer_1" width="406" height="306" class="illustration styles_illustrationTablet__1DWOa" data-name="Layer 1" viewBox="0 0 400 300"><title>_</title><path fill="#dddbdb" d="M343.61,140.63c-9.68-34.93-41.23-53.49-74.09-60.84-45.47-10.15-103-10.79-147-.71-16.41,3.76-32.89,10.78-44.31,24.42-21.18,25.27-40,82.39-14,105,10.37,9.05,28,10.34,42,13.16,53.6,10.76,111.63.23,166-4.11,12.6-1,48.35,3,59.23-4.12C354.47,198.31,351.09,167.6,343.61,140.63Z" opacity=".18"/><path fill="#e6e6e6" d="M217.87,151.44c2.09-3.29,3.49-7.48,1.93-11.05-2.39-5.43-9.59-6.11-15.42-7.19a43.81,43.81,0,0,1-20.61-9.93,10,10,0,0,1-3.36-4.47c-.86-2.94.89-6.15,3.38-7.94s5.59-2.46,8.59-3.1l12.67-2.7c3.67-.78,8.15-2.42,8.46-6.16.37-4.35-5.08-6.49-9.38-7.23l-10-1.75c-3.12-.54-6.51-1.24-8.5-3.7-3.37-4.16-.45-10.7,4-13.73,5-3.42,11.29-4.19,17.32-4.79q39.59-4,79.43-4.12c3.84,0,7.92.07,11.13,2.19a6.67,6.67,0,0,1,2.62,3c1.14,2.93-.84,6.32-3.57,7.88s-6,1.75-9.14,2A307.28,307.28,0,0,0,242,85c-1.31.28-2.91.92-2.93,2.26a2.56,2.56,0,0,0,.68,1.59c3.21,4.07,9,4.56,14,6s10.32,5.92,8.63,10.82a8.71,8.71,0,0,1-4.37,4.5c-8.88,4.82-20.54,1.81-29.28,6.89a3,3,0,0,0-1.44,1.42c-.61,1.79,1.9,2.91,3.77,3.12l22.15,2.49c6,.67,13,2.08,15.47,7.6,1.84,4.17.14,9.07-2.31,12.92-5.64,8.85-14.87,14.71-24.13,19.64a123.52,123.52,0,0,1-23.94,10.07c-4.85,1.38-19.29,5.95-23.64,1.72C189.57,171.12,214.69,156.47,217.87,151.44Z"/><path fill="#24285b" d="M133.84,145.19a5.23,5.23,0,0,1,1,.46,13.66,13.66,0,0,0,2.54,1.56c2.36.78,4.67-1.46,5.64-3.75s1.34-5,3.06-6.75a7,7,0,0,1,6.69-1.73,11.13,11.13,0,0,1,5.86,4c1.24,1.54,2.53,3.52,4.51,3.5s3.1-1.74,4.66-2.68a5.92,5.92,0,0,1,6.39.31c1.73,1.29,2.79,3.56,4.86,4.15,3.12.89,6.5-2.59,9.4-1.16,1.93,1,2.46,3.63,4.33,4.7a6.42,6.42,0,0,0,3.84.46c14.35-1.31.35,23.49-3.53,28.2a40.07,40.07,0,0,1-29.58,14.69c-11.36.22-22.81-5.28-29.25-14.63a47.82,47.82,0,0,1-7.07-15.26c-1.07-4.19-2.75-10.65.34-14.38A6,6,0,0,1,133.84,145.19Z"/><path fill="#e6e6e6" d="M86.26,141.7c-.73-.29-26.78-25.39-27.28-27.11s4.33-7.1,1.91-8.47-8.66-2.07-9,4.67c0,0-11.19-.79-9.74,5.79s10.48,2.62,10.48,2.62l29.85,32.19Z"/><path fill="#6FC971" d="M154.39,201.88a12.3,12.3,0,0,1-1.89,2.94,23.35,23.35,0,0,1-4.16,3.71c-14.27,10.37-36.82,12.42-52.17,3.12A37.82,37.82,0,0,1,78.58,185a72.89,72.89,0,0,1-.39-11.73c.06-3,.93-5.8.7-8.85a34.19,34.19,0,0,0-7.53-18.83c-.87-1-1.84-2.18-1.82-3.54s1.85-2.56,2.77-1.56a2.66,2.66,0,0,1,.19-1.74,3.24,3.24,0,0,1,3.87-1.84c.09,0,1.81-4.24,2.23-4.67,1.63-1.6,3.74-.22,5.13,1,4,3.45,8.15,7,13.22,8.58,8,2.44,16.33,2.36,24.29,5.32a67.39,67.39,0,0,1,22.35,13.28,53,53,0,0,1,3.95,4.12C156.6,175.15,160.22,189,154.39,201.88Z"/><path d="M152.5,204.82a23.35,23.35,0,0,1-4.16,3.71c-14.27,10.37-36.82,12.42-52.17,3.12A37.82,37.82,0,0,1,78.58,185a72.89,72.89,0,0,1-.39-11.73c.06-3,.93-5.8.7-8.85a34.19,34.19,0,0,0-7.53-18.83c-.87-1-1.84-2.18-1.82-3.54s1.85-2.56,2.77-1.56a2.66,2.66,0,0,1,.19-1.74c1.57,1.74,3,3.67,4.42,5.23a50,50,0,0,0,12.33,9.64,4.53,4.53,0,0,1,1.7,1.29c.74,1.06.42,2.48.33,3.76-.29,4,1.8,7.8,4.7,10.5s6.55,4.45,10.15,6.09c5.2,2.35,10.52,4.56,16.13,5.5,4,.69,8.27.73,12,2.32,5.34,2.25,8.94,7.21,12.18,12C148.6,198.25,150.68,201.47,152.5,204.82Z" opacity=".05"/><path fill="#fff" d="M133.54,161.17c-4.63-4.88-10.91-7.5-17-10a2.47,2.47,0,0,0-3,1.72,2.53,2.53,0,0,0,1.72,3,77.8,77.8,0,0,1,7.93,3.62,25.53,25.53,0,0,1,6.9,5.11,2.46,2.46,0,1,0,3.49-3.48Z" opacity=".3"/><path fill="#ffd200" d="M319.32,206.66c0,23.15-48.07,12.69-107.34,12.69s-107.35,10.46-107.35-12.69c0-9.87,8.72-21.8,23.34-32.23,19.68-14.05,50-25.4,84-25.4,31.19,0,59.25,9.54,78.86,21.95C308.51,182.16,319.32,195.69,319.32,206.66Z"/><path d="M319.32,206.66c0,23.15-48.07,12.69-107.34,12.69s-107.35,10.46-107.35-12.69c0-9.87,8.72-21.8,23.34-32.23a66.54,66.54,0,0,0,24.87,15.71c20,7.08,42.19,5.44,62.93.74s40.71-12.33,61.41-17.19c4.49-1.06,9.06-2,13.66-2.71C308.51,182.16,319.32,195.69,319.32,206.66Z" opacity=".05"/><path fill="#fff" d="M254.3,163.91a1.32,1.32,0,0,0-1.76-.46,49.5,49.5,0,0,0-8.2,4.58,1.28,1.28,0,1,0,1.29,2.22,49.64,49.64,0,0,1,8.21-4.59A1.29,1.29,0,0,0,254.3,163.91Z" opacity=".3"/><path fill="#fff" d="M224.59,159.71a1.31,1.31,0,0,0-1.82,0,41.53,41.53,0,0,1-8.92,7,1.29,1.29,0,1,0,1.3,2.22,44.33,44.33,0,0,0,9.44-7.43A1.32,1.32,0,0,0,224.59,159.71Z" opacity=".3"/><path fill="#fff" d="M170.53,176.91l-4.59-2.3a1.29,1.29,0,0,0-1.3,2.22l4.59,2.3a1.31,1.31,0,0,0,1.76-.47A1.29,1.29,0,0,0,170.53,176.91Z" opacity=".3"/><path fill="#fff" d="M195.17,177.2c-.2-.22-.4-.44-.59-.67l-.26-.32-.07-.09-.05-.06c-.35-.48-.68-1-1-1.48s-.56-1-.81-1.52c0-.13-.11-.25-.17-.38h0a.87.87,0,0,1-.07-.17c-.12-.29-.22-.58-.32-.88a1.29,1.29,0,0,0-2.48.69,19,19,0,0,0,4,6.71,1.29,1.29,0,1,0,1.82-1.82Z" opacity=".3"/><path fill="#fff" d="M242.82,189.92a85.73,85.73,0,0,0-7-8.13A1.28,1.28,0,0,0,234,183.6c1.19,1.23,2.35,2.48,3.47,3.77s2.17,2.61,3.11,3.84a1.31,1.31,0,0,0,1.76.46A1.29,1.29,0,0,0,242.82,189.92Z" opacity=".3"/><path fill="#fff" d="M283.68,182.27l-6.36,11.14a1.28,1.28,0,0,0,2.21,1.3l6.37-11.14A1.29,1.29,0,0,0,283.68,182.27Z" opacity=".3"/><path fill="#fff" d="M269.37,182.36c-.52-2.87-1.18-5.72-2-8.53a1.29,1.29,0,0,0-2.48.69c.78,2.81,1.44,5.65,2,8.52a1.3,1.3,0,0,0,1.58.9A1.32,1.32,0,0,0,269.37,182.36Z" opacity=".3"/><path fill="#fff" d="M214.31,180.37a1.3,1.3,0,0,0-1.58.89,51.25,51.25,0,0,1-1.75,6.79,1.3,1.3,0,0,0,.9,1.58,1.32,1.32,0,0,0,1.58-.9,51.11,51.11,0,0,0,1.75-6.78A1.32,1.32,0,0,0,214.31,180.37Z" opacity=".3"/><path fill="#fff" d="M182,160.68l-10.71-1.13a1.29,1.29,0,0,0-1.28,1.29,1.31,1.31,0,0,0,1.28,1.28L182,163.25a1.3,1.3,0,0,0,1.29-1.29A1.32,1.32,0,0,0,182,160.68Z" opacity=".3"/><path fill="#fff" d="M146.19,178.77a1.3,1.3,0,0,0-1.76-.46,16.76,16.76,0,0,0-3.84,3.63c-1.23,1.52-2.45,3.05-3.68,4.58a1.28,1.28,0,0,0,1.82,1.81c1.2-1.49,2.39-3,3.6-4.47.51-.63,1-1.25,1.6-1.83a11,11,0,0,1,.93-.87l.2-.17,0,0,.07-.06.56-.37A1.3,1.3,0,0,0,146.19,178.77Z" opacity=".3"/><path fill="#fff" d="M182.12,185.64a1.3,1.3,0,0,0-1.58-.9,1.33,1.33,0,0,0-.9,1.58,82.44,82.44,0,0,1,1.1,10.15,1.32,1.32,0,0,0,1.29,1.28,1.3,1.3,0,0,0,1.28-1.28A89.44,89.44,0,0,0,182.12,185.64Z" opacity=".3"/><path fill="#fff" d="M164.43,185.61a1.28,1.28,0,0,0-.59-.76,1.31,1.31,0,0,0-1.76.46,10.29,10.29,0,0,1-.64,1,9.22,9.22,0,0,1-1.33,1.32l-.15.11a1.35,1.35,0,0,0-.59.76,1.28,1.28,0,0,0,.9,1.58,1.23,1.23,0,0,0,1-.13,10,10,0,0,0,3-3.33A1.36,1.36,0,0,0,164.43,185.61Z" opacity=".3"/><path fill="#fff" d="M125.24,192.48c-.46-.51-.9-1-1.33-1.58a25.58,25.58,0,0,1-1.57-2.28,1.29,1.29,0,0,0-1.76-.46,1.31,1.31,0,0,0-.46,1.75,30,30,0,0,0,3.3,4.39,1.29,1.29,0,0,0,1.82-1.82Z" opacity=".3"/><polygon fill="#fff" points="299.33 188.66 299.33 188.65 299.33 188.66 299.33 188.66" opacity=".3"/><path fill="#fff" d="M303.13,192.09c-.23-.14-.45-.29-.67-.44l-.36-.26-.13-.09c-.42-.34-.83-.69-1.22-1.07s-.74-.76-1.08-1.16l-.26-.31-.08-.1h0l-.07-.09.07.08,0,0c-.17-.22-.33-.45-.49-.68a1.3,1.3,0,0,0-1.75-.46,1.28,1.28,0,0,0-.46,1.75,17.39,17.39,0,0,0,5.23,5.09,1.29,1.29,0,0,0,1.3-2.22Z" opacity=".3"/><path fill="#fff" d="M256.4,180.49a48.93,48.93,0,0,0-4.16-5.05,1.29,1.29,0,0,0-1.81,0,1.31,1.31,0,0,0,0,1.82c.7.74,1.38,1.5,2,2.29l.48.59.22.27.11.14,0,.07.05.06.1.14.24.32.48.65a1.35,1.35,0,0,0,.76.59,1.29,1.29,0,0,0,1.45-1.89Z" opacity=".3"/><path fill="#fff" d="M209.35,156.22a85.05,85.05,0,0,0-9.29.85,1.3,1.3,0,0,0-.9,1.58,1.33,1.33,0,0,0,1.58.89,80.23,80.23,0,0,1,8.61-.75,1.29,1.29,0,1,0,0-2.57Z" opacity=".3"/><path fill="#fff" d="M243.9,157.78l-.54-.06-.24,0c-.3,0-.59-.08-.89-.14-.58-.1-1.16-.22-1.73-.35a28.66,28.66,0,0,1-3.49-1.07,1.29,1.29,0,0,0-1.58.9,1.33,1.33,0,0,0,.9,1.58,30.72,30.72,0,0,0,7.57,1.74,1.28,1.28,0,0,0,1.28-1.28A1.31,1.31,0,0,0,243.9,157.78Z" opacity=".3"/><path fill="#24285b" d="M292.56,191.08a7.85,7.85,0,0,1,1.27-3.23,2.94,2.94,0,0,1,3.08-1.16c2.1.69,2.41,4.17,4.6,4.51,1.51.23,2.69-1.25,3.39-2.6a32.2,32.2,0,0,1,2.71-4.92,6.18,6.18,0,0,1,4.73-2.66c2.16,0,4,1.68,5.17,3.49.43.66.88,1.41,1.64,1.63a2.56,2.56,0,0,0,1.47-.12c2.3-.74,4.16-2.42,6.26-3.6s4.87-1.82,6.84-.42a6.16,6.16,0,0,1,2.13,3.34c1.72,5.55-.47,11.68-4,16.29a30.92,30.92,0,0,1-29.11,11.44,16.57,16.57,0,0,1-7.24-2.81,10.5,10.5,0,0,1-3.89-7.34A34.5,34.5,0,0,1,292.56,191.08Z"/><path fill="#e6e6e6" d="M282.7,228.16H120a124.63,124.63,0,0,1-75.24-25.22H357.94A124.63,124.63,0,0,1,282.7,228.16Z"/></svg>