<svg xmlns="http://www.w3.org/2000/svg" id="Layer_2" width="406" height="306" class="illustration styles_illustrationTablet__1DWOa" data-name="Layer 2" viewBox="0 0 400 300"><title>PP</title><path fill="#7676dd" d="M194.28,288.31,21.78,186.36c-5.49-3.08-10.2-8.15-4.85-11.46L190.05,75.12c2.6-1.61,6.54-2.66,9.18-1.13L380.31,179.09c5.49,3.19,6.48,12.1,1,15.29L217,288.15A22.94,22.94,0,0,1,194.28,288.31Z"/><ellipse cx="201.08" cy="181.49" fill="#6FC971" rx="119.91" ry="66.36"/><ellipse cx="201.08" cy="181.49" fill="#093e3e" opacity=".29" rx="119.91" ry="66.36"/><ellipse cx="201.08" cy="174.26" fill="#6FC971" rx="119.91" ry="66.36"/><ellipse cx="201.08" cy="173.7" fill="#093e3e" opacity=".29" rx="83.35" ry="42.6"/><polyline fill="#f6b034" points="130.6 173.02 130.6 181.14 237.8 185.23 271.56 185.23 271.56 175.13"/><path fill="#f6b034" d="M132.68,184,176,209.53S177.81,228,202.23,228c37.37,0,74.12-34.95,68.82-45.81C264.58,168.93,245.9,171,245.9,171l-46.56-27.56a6.8,6.8,0,0,0-6.78-.09l-59.8,33.37A4.22,4.22,0,0,0,132.68,184Z"/><path fill="#fbe8ae" d="M132.68,175.41,176,200.92s1.81,18.47,26.23,18.47c37.37,0,74.12-34.95,68.82-45.81-6.47-13.26-25.15-11.21-25.15-11.21l-46.56-27.56a6.8,6.8,0,0,0-6.78-.09l-59.8,33.37A4.22,4.22,0,0,0,132.68,175.41Z"/><path fill="#67352a" d="M152.77,187.12c.45.61,10.26,24.27,52.11,24.35,49.22.1,53.38-18.75,54.28-22.23s.3-11,0-10.9-103.67.76-105,2.27S152.77,187.12,152.77,187.12Z"/><path fill="#99ce45" d="M226.14,149.09c-.38-1-.75-2-1.12-3l6.73-.31a60.46,60.46,0,0,0,5.88,11.77,140.42,140.42,0,0,0,15.45,24.92,54.6,54.6,0,0,0,3.93,5.07c3.32,7.26,12.57,12.82,2.52,13.08-6.59.17-10.46-2.65-13-3.89q-4.86-10.1-9.32-20.37C233.77,167.16,230,158.1,226.14,149.09Z"/><path fill="#99ce45" d="M219,146.34l3.1-.14,1.37,3.18L242,200.26c-.71,6,1.94,15.76-4.43,11.49-5.39-3.61-5.7-10.66-7.79-12.23q-2.08-7.15-3.73-14.41C224.46,172.09,221.8,159.2,219,146.34Z"/><path fill="#99ce45" d="M213.64,148.68c0-.7-.06-1.4-.09-2.1l2.84-.13a1.16,1.16,0,0,0-.47,1.15L224.05,203c-3.44,4.9-2.75,10.06-5.72,2.33-2.07-5.4-2.57-9.05-4.11-10.51q0-22.56-.09-45.12A1.28,1.28,0,0,0,213.64,148.68Z"/><path fill="#99ce45" d="M235.25,145.59l1.17-.05a1.08,1.08,0,0,0,.33,1.65c8.6,5.08,16,12.29,25.12,16.23a8.64,8.64,0,0,0,1,2.12c4.55,7.25,8.13,9.15,3.48,13.33-3.1,2.79-7.51,1.06-9.48,2.07-8.2-10.21-14.66-21.61-20.81-33.19C235.8,147,235.53,146.31,235.25,145.59Z"/><path fill="#99ce45" d="M243,145.24s20.64-2.12,23.14,7.28c1.22,4.58-.61,6.06-2.27,7.22-8.41-4.7-16.75-9.51-25.11-14.31Z"/><path fill="#99ce45" d="M208.88,147.45l.26-.66.51,0-.45.94A1.34,1.34,0,0,0,208.88,147.45Z"/><path fill="#99ce45" d="M211.18,149.5c.06,1,.11,1.93.19,2.89a177.69,177.69,0,0,1-9.3,44.81c-1.66-.11-2.23-1.55-2.32-4.95-.16-6.11,6.47-14.54,1.52-15.82,2.13-4.57,3.17-9.61,4.84-14.36C207.61,157.8,209.32,153.62,211.18,149.5Z"/><path fill="#99ce45" d="M206.52,195.12a1.21,1.21,0,0,0,.19.84l-1,.4c.31-.72.63-1.44.93-2.17Z"/><path fill="#88b72c" d="M236.75,147.19a1.08,1.08,0,0,1-.33-1.65l2.36-.11c8.35,4.8,16.7,9.61,25.11,14.31-1.35.94-2.6,1.68-2,3.68C252.7,159.48,245.35,152.27,236.75,147.19Z"/><path fill="#88b72c" d="M237.63,157.52a60.46,60.46,0,0,1-5.88-11.77l3.5-.16c.28.72.55,1.43.83,2.14,6.15,11.58,12.61,23,20.81,33.19-1,.5-1.36,1.68-.65,4.43a12.85,12.85,0,0,0,.78,2.16,54.6,54.6,0,0,1-3.93-5.07A140.42,140.42,0,0,1,237.63,157.52Z"/><path fill="#88b72c" d="M222.13,146.19l2.89-.13c.37,1,.74,2,1.12,3,3.86,9,7.62,18.07,11,27.25q4.47,10.27,9.32,20.37c-1.73-.84-2.88-1-3.87,1a7.76,7.76,0,0,0-.66,2.53l-18.47-50.88Z"/><path fill="#88b72c" d="M216.39,146.46l2.64-.12c2.77,12.86,5.43,25.75,7,38.78q1.66,7.25,3.73,14.41c-.78-.59-1.81-.41-3.45,1a13.42,13.42,0,0,0-2.24,2.5l-8.14-55.41A1.16,1.16,0,0,1,216.39,146.46Z"/><path fill="#88b72c" d="M208.32,146.83l.81,0-.26.66a1.34,1.34,0,0,1,.33.26l.45-.94,3.9-.18c0,.7,0,1.4.09,2.1a1.28,1.28,0,0,1,.49,1q0,22.56.09,45.12c-1.05-1-2.59-1-5.47.27l-2,.86a1.21,1.21,0,0,1-.19-.84l.1-.93c-.3.73-.62,1.45-.93,2.17a9.56,9.56,0,0,1-3.63.85,177.69,177.69,0,0,0,9.3-44.81c-.08-1-.13-1.93-.19-2.89-1.86,4.12-3.58,8.3-5.08,12.57-1.67,4.75-2.71,9.8-4.84,14.36l-.22-.06C195.68,175.29,208.32,146.83,208.32,146.83Z"/><path fill="#99ce45" d="M178.45,144.24l1.81-2.67-6.46-1.9a60.46,60.46,0,0,1-8.52,10,140.42,140.42,0,0,1-21,20.52,54.6,54.6,0,0,1-5,4c-5,6.26-15.27,9.46-5.57,12.1,6.36,1.73,10.79-.08,13.58-.67q7.12-8.65,13.91-17.56C166.74,160,172.55,152.07,178.45,144.24Z"/><path fill="#99ce45" d="M186,143.26l-3-.88-2.09,2.76-30.07,45c-.73,6-5.64,14.85,1.56,12.22,6.1-2.22,8.07-9,10.48-10q3.72-6.45,7.06-13.1C174.6,167,180.25,155.09,186,143.26Z"/><path fill="#99ce45" d="M190.69,146.83c.21-.67.39-1.34.59-2l-2.73-.8a1.16,1.16,0,0,1,.19,1.23l-21.11,51.87c2.17,5.58.28,10.42,5,3.62,3.3-4.75,4.65-8.18,6.49-9.23L190,147.71A1.28,1.28,0,0,1,190.69,146.83Z"/><path fill="#99ce45" d="M170.44,138.67l-1.12-.33a1.08,1.08,0,0,1-.71,1.52c-9.57,2.88-18.43,8.13-28.27,9.77a8.64,8.64,0,0,1-1.49,1.81c-6.15,6-10.08,6.95-6.56,12.11,2.35,3.45,7,2.82,8.71,4.27,10.4-8,19.39-17.49,28.12-27.27C169.56,139.94,170,139.3,170.44,138.67Z"/><path fill="#99ce45" d="M163,136.48s-19.54-7-24.21,1.55c-2.28,4.16-.86,6,.49,7.56,9.29-2.55,18.54-5.24,27.79-7.91Z"/><path fill="#99ce45" d="M195.61,146.76c0-.24-.06-.47-.09-.7l-.49-.15c.07.34.14.68.21,1A1.34,1.34,0,0,1,195.61,146.76Z"/><path fill="#99ce45" d="M192.88,148.2c-.29.92-.57,1.84-.87,2.76a177.69,177.69,0,0,0-1.65,45.74c1.64.29,2.54-1,3.43-4.25,1.61-5.9-2.81-15.66,2.3-15.73-1-4.94-.78-10.09-1.27-15.1C194.37,157.12,193.7,152.65,192.88,148.2Z"/><path fill="#99ce45" d="M186.53,193.62a1.21,1.21,0,0,1-.38.77l.89.63c-.13-.78-.27-1.55-.39-2.33Z"/><path fill="#88b72c" d="M168.61,139.86a1.08,1.08,0,0,0,.71-1.52l-2.26-.67c-9.26,2.67-18.51,5.35-27.79,7.91,1.09,1.24,2.12,2.25,1.08,4.05C150.18,148,159,142.75,168.61,139.86Z"/><path fill="#88b72c" d="M165.28,149.69a60.46,60.46,0,0,0,8.52-10l-3.36-1c-.44.63-.87,1.26-1.32,1.88-8.73,9.78-17.72,19.31-28.12,27.27.83.72.92,2-.42,4.46a12.85,12.85,0,0,1-1.27,1.91,54.6,54.6,0,0,0,5-4A140.42,140.42,0,0,0,165.28,149.69Z"/><path fill="#88b72c" d="M183,142.39l-2.77-.82-1.81,2.67c-5.9,7.84-11.71,15.73-17.22,23.83q-6.79,8.91-13.91,17.56c1.88-.4,3-.25,3.52,1.91a7.76,7.76,0,0,1,0,2.62l30.07-45Z"/><path fill="#88b72c" d="M188.55,144l-2.54-.75c-5.75,11.83-11.41,23.72-16,36q-3.34,6.65-7.06,13.1c.9-.38,1.86,0,3.12,1.79a13.42,13.42,0,0,1,1.58,3l21.11-51.87A1.16,1.16,0,0,0,188.55,144Z"/><path fill="#88b72c" d="M196.29,146.29l-.78-.23c0,.24.06.47.09.7a1.34,1.34,0,0,0-.38.17c-.07-.34-.14-.68-.21-1l-3.75-1.1c-.19.67-.38,1.35-.59,2a1.28,1.28,0,0,0-.72.88l-10.85,43.8c1.26-.72,2.74-.33,5.25,1.56.64.49,1.23.92,1.78,1.32a1.21,1.21,0,0,0,.38-.77l.12-.93c.12.78.26,1.55.39,2.33a9.56,9.56,0,0,0,3.32,1.69A177.69,177.69,0,0,1,192,151c.31-.92.58-1.84.87-2.76.82,4.44,1.49,8.91,1.93,13.42.49,5,.3,10.16,1.27,15.1h.23C201.79,177,196.29,146.29,196.29,146.29Z"/><path fill="#c61424" d="M139.14,176.94v5s.08,9.08,21.4,8.84v-3.17s-9.79-.82-14.1-2.84C141.41,182.46,139.38,179.29,139.14,176.94Z"/><ellipse cx="156.88" cy="177.24" fill="#ff2624" rx="17.74" ry="10.46"/><path fill="#c61424" d="M144.4,171.59s-3,1.83-3,5,1.43,4.68,3,4.68,5.94-5.63,7.42-4.35-4.85,5.67-3.6,7.27,12.5,2.91,14.55,1.31,4.45-9-1.54-11.07S144.4,171.59,144.4,171.59Z"/><path fill="#c61424" d="M277.61,177.52v5s-1.61,10.42-26.7,7l1.35-2.28s13.73.14,18.05-1.88C275.34,183,277.36,179.87,277.61,177.52Z"/><ellipse cx="259.87" cy="177.82" fill="#ff2624" rx="17.74" ry="10.46"/><path fill="#c61424" d="M272.35,172.17s3,1.83,3,5-1.43,4.68-3,4.68-5.94-5.63-7.42-4.35,4.85,5.67,3.6,7.27S256,187.69,254,186.1s-4.45-9,1.54-11.07S272.35,172.17,272.35,172.17Z"/><path fill="#c61424" d="M181.16,198.84v5.47s4,6.84,20.19,6.84,19.85-7.06,19.85-7.27v-5"/><ellipse cx="201.18" cy="199.41" fill="#ff2624" rx="20.02" ry="9.35"/><path fill="#c61424" d="M183.51,198.84s4,5.93,9,6.15,6.12-6,8-4.39,1.31,5.8,5.33,5.37,12.55-3.88,12.75-6.56"/><path fill="#ffe41f" d="M208.88,184.13c-1.3-.2-47.6,1.78-48.34,3.52s-2.36,10.31-3.66,9.55-8.76-15.12-8.76-15.12l-8.06-22.34,124.86,17.78s-.59,21-2.31,22.74-9.77-6.4-10.9-6.69-30.51,8.23-30.51,8.23Z"/><polyline fill="#f6b034" points="134.04 148.53 134.04 156.65 241.24 160.74 275.01 160.74 275.01 150.64"/><path fill="#f6b034" d="M136.12,159.53,179.44,185s1.81,18.47,26.23,18.47c37.37,0,74.12-34.95,68.82-45.81-6.47-13.26-25.15-11.21-25.15-11.21l-46.56-27.56a6.8,6.8,0,0,0-6.78-.09l-59.8,33.37A4.22,4.22,0,0,0,136.12,159.53Z"/><path fill="#fbe8ae" d="M136.12,150.92l43.32,25.51s1.81,18.47,26.23,18.47c37.37,0,74.12-34.95,68.82-45.81-6.47-13.26-25.15-11.21-25.15-11.21l-46.56-27.56a6.8,6.8,0,0,0-6.78-.09l-59.8,33.37A4.22,4.22,0,0,0,136.12,150.92Z"/><path fill="#f4bf6c" d="M198.16,126.5c-5.15,0-5.16,8,0,8S203.32,126.5,198.16,126.5Z"/><path fill="#f4bf6c" d="M253,152.21c-5.15,0-5.16,8,0,8S258.15,152.21,253,152.21Z"/><path fill="#f4bf6c" d="M209.31,172c-5.15,0-5.16,8,0,8S214.47,172,209.31,172Z"/><path fill="#f4bf6c" d="M187.63,146.63c-5.15,0-5.16,8,0,8S192.79,146.63,187.63,146.63Z"/><path fill="#f4bf6c" d="M159.44,138.89c-5.15,0-5.16,8,0,8S164.6,138.89,159.44,138.89Z"/><path fill="#f4bf6c" d="M210.24,153.78a1.5,1.5,0,0,0,0,3A1.5,1.5,0,0,0,210.24,153.78Z"/><path fill="#f4bf6c" d="M235.33,137.67a1.5,1.5,0,0,0,0,3A1.5,1.5,0,0,0,235.33,137.67Z"/><path fill="#f4bf6c" d="M233.17,168a1.5,1.5,0,0,0,0,3A1.5,1.5,0,0,0,233.17,168Z"/><path fill="#f4bf6c" d="M213.65,138a1.5,1.5,0,0,0,0,3A1.5,1.5,0,0,0,213.65,138Z"/><path fill="#f4bf6c" d="M178.65,133a1.5,1.5,0,0,0,0,3A1.5,1.5,0,0,0,178.65,133Z"/><path fill="#f4bf6c" d="M172.27,157.32,172,157a1.5,1.5,0,1,0-2.12,2.12l.31.31a1.5,1.5,0,0,0,2.12-2.12Z"/></svg>